# xmcd
#
# Track frame offsets:
#	150
#	14943
#	28832
#	44396
#	59652
#	79266
#	96153
#	115077
#	128091
#	144038
#	157262
#	188207
#
# Disc length: 2906 seconds
#
# Revision: 1
# Processed by: cddbd v1.5.2PL0 Copyright (c) Steve Scherf et al.
# Submitted via: EasyCDDAExtractor 12.1.0.1
#
DISCID=aa0b580c
DTITLE=Sinclair
DYEAR=2011
DGENRE=Soul
TTITLE0=Ca Tourne Dans Ma Tête
TTITLE1=Dangereuse
TTITLE2=La Fête Est Finie
TTITLE3=Ta Petite Liste
TTITLE4=Ailleurs
TTITLE5=S'en Aller
TTITLE6=Envie De Toi
TTITLE7=Victime Du Bonheur
TTITLE8=Rose, Etc...
TTITLE9=Funky Drama
TTITLE10=Monde Idéal
TTITLE11=Titre de la piste 12
EXTD=
EXTT0=
EXTT1=
EXTT2=
EXTT3=
EXTT4=
EXTT5=
EXTT6=
EXTT7=
EXTT8=
EXTT9=
EXTT10=
EXTT11=
PLAYORDER=
